<?xml version="1.0" standalone="no"?>
<!DOCTYPE svg PUBLIC "-//W3C//DTD SVG 20010904//EN"
 "http://www.w3.org/TR/2001/REC-SVG-20010904/DTD/svg10.dtd">
<svg version="1.0" xmlns="http://www.w3.org/2000/svg"
 width="750.000000pt" height="224.000000pt" viewBox="0 0 750.000000 224.000000"
 preserveAspectRatio="xMidYMid meet">

<g transform="translate(0.000000,224.000000) scale(0.100000,-0.100000)"
fill="#000000" stroke="none">
<path d="M846 2095 c-159 -23 -321 -64 -465 -117 l-54 -20 7 -71 c4 -39 8 -72
9 -73 1 -2 43 12 93 31 464 174 981 160 1418 -39 75 -35 76 -35 76 -73 0 -65
-29 -233 -60 -348 -66 -248 -182 -474 -350 -684 -72 -89 -229 -249 -309 -314
-18 -15 -32 -29 -30 -31 85 -60 109 -76 118 -76 20 0 185 156 279 265 300 349
466 750 498 1206 l7 97 -47 27 c-139 81 -388 168 -589 206 -147 27 -457 35
-601 14z"/>
<path d="M148 1879 c-68 -34 -66 -25 -43 -221 63 -544 312 -1005 730 -1354 68
-56 242 -174 257 -174 17 0 117 73 112 81 -3 5 -60 47 -127 94 -161 112 -288
224 -388 343 -282 338 -423 697 -454 1160 -5 66 -11 102 -19 102 -6 -1 -37
-14 -68 -31z"/>
<path d="M7244 1821 c-63 -38 -70 -128 -13 -175 86 -73 212 21 168 125 -14 36
-62 69 -99 69 -14 0 -39 -9 -56 -19z m99 -13 c34 -18 46 -39 47 -81 0 -53 -35
-87 -90 -87 -56 0 -90 34 -90 89 0 67 73 111 133 79z"/>
<path d="M7260 1731 c0 -34 4 -61 10 -61 6 0 10 11 10 25 0 14 5 25 10 25 6 0
16 -11 22 -25 6 -14 15 -25 20 -25 11 0 10 14 -3 27 -8 8 -7 17 3 32 18 29 0
55 -41 59 l-31 3 0 -60z m60 19 c0 -13 -7 -20 -20 -20 -13 0 -20 7 -20 20 0
13 7 20 20 20 13 0 20 -7 20 -20z"/>
<path d="M2510 1530 l0 -70 164 0 c157 0 166 -1 191 -23 20 -16 28 -35 32 -68
4 -38 1 -50 -22 -77 l-27 -32 -169 0 -169 0 0 -190 0 -190 80 0 79 0 3 118 3
117 54 0 54 0 72 -115 72 -115 91 -3 c51 -1 92 0 92 4 0 4 -34 62 -75 129 -41
68 -75 125 -75 129 0 3 18 24 40 46 94 94 89 251 -12 347 -59 57 -87 63 -293
63 l-185 0 0 -70z"/>
<path d="M3200 1240 l0 -360 253 2 252 3 3 73 3 72 -171 0 -170 0 0 75 0 75
80 0 80 0 0 70 0 70 -80 0 -80 0 0 70 0 70 165 0 165 0 0 70 0 70 -250 0 -250
0 0 -360z"/>
<path d="M3810 1461 l0 -141 85 0 85 0 0 71 0 72 78 -5 c44 -3 91 -12 109 -21
108 -57 136 -246 50 -344 -42 -48 -82 -63 -167 -63 l-70 0 0 80 0 80 -85 0
-85 0 0 -155 0 -155 150 0 c163 0 231 10 300 45 240 123 235 523 -8 642 -56
27 -62 28 -249 31 l-193 4 0 -141z"/>
<path d="M4460 1530 l0 -70 110 0 110 0 0 -290 0 -290 85 0 85 0 0 290 0 290
110 0 110 0 0 70 0 70 -305 0 -305 0 0 -70z"/>
<path d="M5150 1240 l0 -360 253 2 252 3 3 73 3 72 -171 0 -170 0 0 75 0 75
80 0 80 0 0 70 0 70 -80 0 -80 0 0 70 0 70 165 0 165 0 0 70 0 70 -250 0 -250
0 0 -360z"/>
<path d="M5830 1249 c-74 -194 -137 -356 -138 -361 -2 -5 28 -8 69 -6 l73 3
97 248 c54 137 99 251 101 253 3 2 48 -110 100 -249 l96 -252 71 -3 c52 -2 71
1 71 10 0 6 -60 169 -132 360 l-133 348 -70 0 -70 0 -135 -351z"/>
<path d="M6442 1243 l3 -358 82 -3 83 -3 2 213 3 213 74 -152 74 -153 46 0 47
0 74 151 75 150 5 -208 5 -208 83 -3 82 -3 0 361 0 360 -90 0 -90 0 -90 -180
c-50 -99 -94 -180 -98 -180 -4 0 -48 81 -97 180 l-90 180 -92 0 -93 0 2 -357z"/>
<path d="M2520 555 l0 -146 28 3 c26 3 27 6 30 61 l3 57 64 0 65 0 0 -60 c0
-57 1 -60 25 -60 l25 0 0 145 0 145 -25 0 c-24 0 -25 -3 -25 -60 l0 -60 -65 0
-64 0 -3 58 c-3 54 -4 57 -30 60 l-28 3 0 -146z"/>
<path d="M2933 567 c-29 -73 -53 -138 -53 -145 0 -9 10 -12 27 -10 21 2 29 10
37 36 9 31 11 32 62 32 51 0 53 -1 64 -35 10 -30 16 -35 42 -35 20 0 28 4 25
13 -3 6 -28 72 -57 145 -44 113 -54 132 -73 132 -19 0 -30 -19 -74 -133z m106
-29 c1 -14 -7 -18 -34 -18 -41 0 -41 0 -18 63 l18 49 17 -39 c9 -21 17 -46 17
-55z"/>
<path d="M3310 682 c-93 -46 -97 -197 -7 -253 39 -25 106 -21 145 8 34 25 37
39 13 53 -17 8 -24 7 -41 -10 -47 -47 -130 1 -130 75 0 44 42 95 78 95 14 0
36 -9 48 -21 19 -17 25 -19 42 -8 26 16 14 42 -28 64 -38 20 -77 19 -120 -3z"/>
<path d="M3600 555 l0 -146 28 3 c25 3 27 7 30 49 2 28 10 53 20 62 16 14 21
11 62 -49 37 -52 50 -64 73 -64 33 0 33 -2 -36 93 l-49 68 51 59 c28 32 51 61
51 64 0 3 -11 6 -24 6 -18 0 -41 -19 -83 -66 l-58 -66 -5 64 c-5 60 -6 63 -32
66 l-28 3 0 -146z"/>
<path d="M3950 555 l0 -146 98 3 c92 3 97 4 100 26 3 21 0 22 -73 22 l-76 0 3
38 3 37 58 3 c49 3 57 6 57 22 0 18 -7 20 -60 20 l-60 0 0 35 0 35 70 0 c68 0
70 1 70 25 0 25 0 25 -95 25 l-95 0 0 -145z"/>
<path d="M4270 554 l0 -145 28 3 c25 3 27 7 30 51 3 42 6 47 27 47 17 0 31
-13 55 -50 26 -41 37 -50 61 -50 16 0 29 2 29 5 0 2 -13 26 -30 52 l-30 47 22
23 c36 38 31 97 -10 134 -30 27 -39 29 -107 29 l-75 0 0 -146z m148 84 c7 -7
12 -21 12 -33 0 -31 -19 -45 -62 -45 l-38 0 0 45 0 45 38 0 c21 0 43 -5 50
-12z"/>
<path d="M4861 678 c-5 -13 -30 -75 -55 -138 -25 -63 -46 -118 -46 -122 0 -4
11 -8 26 -8 19 0 28 8 40 35 14 33 17 35 64 35 47 0 50 -2 64 -35 12 -27 21
-35 40 -35 15 0 26 3 26 8 0 4 -24 68 -53 142 -44 112 -56 136 -75 138 -15 2
-25 -3 -31 -20z m53 -105 c9 -26 16 -48 16 -50 0 -2 -18 -3 -41 -3 -29 0 -40
4 -36 13 2 6 10 29 18 50 7 20 16 37 20 37 4 0 14 -21 23 -47z"/>
<path d="M5210 693 c-8 -3 -26 -15 -38 -27 -71 -63 -69 -159 3 -226 22 -20 37
-25 81 -25 45 0 58 4 81 28 27 27 27 29 9 42 -16 13 -22 12 -44 -5 -47 -37
-101 -17 -122 44 -27 84 63 163 120 106 16 -16 25 -18 40 -10 26 14 25 22 -4
49 -25 23 -95 37 -126 24z"/>
<path d="M5513 567 c-29 -73 -53 -138 -53 -145 0 -6 11 -12 24 -12 19 0 28 8
37 35 13 34 15 35 65 35 51 0 53 -1 64 -35 10 -30 16 -35 42 -35 20 0 28 4 25
13 -3 6 -28 72 -57 145 -44 113 -55 132 -73 132 -19 0 -30 -20 -74 -133z m103
-21 c6 -24 4 -26 -30 -26 -41 0 -42 0 -19 66 l17 49 12 -31 c7 -17 16 -43 20
-58z"/>
<path d="M5830 555 l0 -148 80 5 c117 7 162 47 162 143 0 96 -45 136 -162 143
l-80 5 0 -148z m161 66 c21 -22 29 -39 29 -66 0 -50 -44 -95 -94 -95 l-36 0 0
95 0 95 36 0 c26 0 43 -8 65 -29z"/>
<path d="M6200 555 l0 -146 98 3 c92 3 97 4 100 26 3 21 0 22 -73 22 l-76 0 3
38 3 37 58 3 c49 3 57 6 57 22 0 18 -7 20 -60 20 l-60 0 0 35 0 35 70 0 c68 0
70 1 70 25 0 25 0 25 -95 25 l-95 0 0 -145z"/>
<path d="M6520 554 l0 -145 28 3 c27 3 27 4 32 91 l5 89 32 -66 c18 -36 39
-66 47 -66 8 0 30 28 48 62 l33 62 5 -84 c5 -84 5 -85 33 -88 l27 -3 0 145 0
146 -29 0 c-27 0 -34 -7 -72 -81 -30 -57 -45 -77 -51 -67 -5 7 -24 43 -44 81
-31 60 -37 67 -64 67 l-30 0 0 -146z"/>
<path d="M6920 696 c0 -2 22 -43 50 -92 42 -75 50 -97 50 -142 0 -52 1 -53 28
-50 26 3 27 6 32 64 3 34 10 67 16 75 6 8 27 44 48 82 l37 67 -30 0 c-27 0
-34 -7 -61 -59 -16 -33 -33 -62 -38 -65 -5 -3 -24 24 -43 59 -29 56 -38 65
-61 65 -16 0 -28 -2 -28 -4z"/>
</g>
</svg>
